<svg xmlns="http://www.w3.org/2000/svg" width="1000" height="650" viewBox="0 0 1000 650"><rect width="1000" height="650" fill="#160f17"/><path d="M100 110 L340 110 L580 110 L820 110 L820 300 L580 300 L340 300 L100 300 L100 490 L340 490 L580 490 L820 490" fill="none" stroke="#426781" stroke-width="3" stroke-dasharray="8 8"/><g><circle cx="100" cy="110" r="24" fill="#302531" stroke="#d8bf91"/><text x="100" y="155" text-anchor="middle" fill="#e5f3f8" font-size="15">Ashwake Gate</text></g><g><circle cx="340" cy="110" r="24" fill="#302531" stroke="#d8bf91"/><text x="340" y="155" text-anchor="middle" fill="#e5f3f8" font-size="15">Velvet Infirmary</text></g><g><circle cx="580" cy="110" r="24" fill="#302531" stroke="#d8bf91"/><text x="580" y="155" text-anchor="middle" fill="#e5f3f8" font-size="15">Reservoir Well</text></g><g><circle cx="820" cy="110" r="24" fill="#302531" stroke="#d8bf91"/><text x="820" y="155" text-anchor="middle" fill="#e5f3f8" font-size="15">Hollow Chapel</text></g><g><circle cx="100" cy="300" r="24" fill="#302531" stroke="#d8bf91"/><text x="100" y="345" text-anchor="middle" fill="#e5f3f8" font-size="15">Patron Ballroom</text></g><g><circle cx="340" cy="300" r="24" fill="#302531" stroke="#d8bf91"/><text x="340" y="345" text-anchor="middle" fill="#e5f3f8" font-size="15">Sunken Steps</text></g><g><circle cx="580" cy="300" r="24" fill="#302531" stroke="#d8bf91"/><text x="580" y="345" text-anchor="middle" fill="#e5f3f8" font-size="15">Tenant Orchard</text></g><g><circle cx="820" cy="300" r="24" fill="#302531" stroke="#d8bf91"/><text x="820" y="345" text-anchor="middle" fill="#e5f3f8" font-size="15">Contract Salon</text></g><g><circle cx="100" cy="490" r="24" fill="#302531" stroke="#d8bf91"/><text x="100" y="535" text-anchor="middle" fill="#e5f3f8" font-size="15">Choir Loft</text></g><g><circle cx="340" cy="490" r="24" fill="#302531" stroke="#d8bf91"/><text x="340" y="535" text-anchor="middle" fill="#e5f3f8" font-size="15">Bellfoundry</text></g><g><circle cx="580" cy="490" r="24" fill="#302531" stroke="#d8bf91"/><text x="580" y="535" text-anchor="middle" fill="#e5f3f8" font-size="15">Petition Hall</text></g><g><circle cx="820" cy="490" r="24" fill="#302531" stroke="#d8bf91"/><text x="820" y="535" text-anchor="middle" fill="#e5f3f8" font-size="15">Old Water Gate</text></g><text x="40" y="620" fill="#83c4e4" font-size="24">GOTHIC HORROR · WITNESS AND WATER CHART</text></svg>