<svg xmlns="http://www.w3.org/2000/svg" width="1000" height="650" viewBox="0 0 1000 650"><rect width="1000" height="650" fill="#1e1c13"/><path d="M100 110 L340 110 L580 110 L820 110 L820 300 L580 300 L340 300 L100 300 L100 490 L340 490 L580 490 L820 490" fill="none" stroke="#426781" stroke-width="3" stroke-dasharray="8 8"/><g><circle cx="100" cy="110" r="24" fill="#3d3c26" stroke="#c5cf84"/><text x="100" y="155" text-anchor="middle" fill="#e5f3f8" font-size="15">Floodgate District</text></g><g><circle cx="340" cy="110" r="24" fill="#3d3c26" stroke="#c5cf84"/><text x="340" y="155" text-anchor="middle" fill="#e5f3f8" font-size="15">Orbital Oxygen Dock</text></g><g><circle cx="580" cy="110" r="24" fill="#3d3c26" stroke="#c5cf84"/><text x="580" y="155" text-anchor="middle" fill="#e5f3f8" font-size="15">Sleeping Frame Basin</text></g><g><circle cx="820" cy="110" r="24" fill="#3d3c26" stroke="#c5cf84"/><text x="820" y="155" text-anchor="middle" fill="#e5f3f8" font-size="15">Ferry Lift Junction</text></g><g><circle cx="100" cy="300" r="24" fill="#3d3c26" stroke="#c5cf84"/><text x="100" y="345" text-anchor="middle" fill="#e5f3f8" font-size="15">Quota Archive</text></g><g><circle cx="340" cy="300" r="24" fill="#3d3c26" stroke="#c5cf84"/><text x="340" y="345" text-anchor="middle" fill="#e5f3f8" font-size="15">Crew Memory Vault</text></g><g><circle cx="580" cy="300" r="24" fill="#3d3c26" stroke="#c5cf84"/><text x="580" y="345" text-anchor="middle" fill="#e5f3f8" font-size="15">Outer Shield Pylon</text></g><g><circle cx="820" cy="300" r="24" fill="#3d3c26" stroke="#c5cf84"/><text x="820" y="345" text-anchor="middle" fill="#e5f3f8" font-size="15">Neutral Repair Bay</text></g><g><circle cx="100" cy="490" r="24" fill="#3d3c26" stroke="#c5cf84"/><text x="100" y="535" text-anchor="middle" fill="#e5f3f8" font-size="15">Core Access Bridge</text></g><g><circle cx="340" cy="490" r="24" fill="#3d3c26" stroke="#c5cf84"/><text x="340" y="535" text-anchor="middle" fill="#e5f3f8" font-size="15">Highwater Shelter</text></g><g><circle cx="580" cy="490" r="24" fill="#3d3c26" stroke="#c5cf84"/><text x="580" y="535" text-anchor="middle" fill="#e5f3f8" font-size="15">Habitat Transfer Ring</text></g><g><circle cx="820" cy="490" r="24" fill="#3d3c26" stroke="#c5cf84"/><text x="820" y="535" text-anchor="middle" fill="#e5f3f8" font-size="15">Sunken Signal Yard</text></g><text x="40" y="620" fill="#83c4e4" font-size="24">MECHA &amp; KAIJU · RAINWALL DEFENSE GRID</text></svg>